<!DOCTYPE svg PUBLIC "-//W3C//DTD SVG 20010904//EN" "http://www.w3.org/TR/2001/REC-SVG-20010904/DTD/svg10.dtd">
<svg version="1.0" xmlns="http://www.w3.org/2000/svg" width="300px" height="300px" viewBox="0 0 3000 3000" preserveAspectRatio="xMidYMid meet">
<g id="layer101" fill="#fafafa" stroke="none">
 <path d="M250 2658 l1 -133 132 -89 c73 -48 311 -210 530 -359 l397 -271 0 -224 c0 -175 -3 -223 -12 -219 -7 2 -85 54 -173 114 -690 472 -692 473 -745 473 l-50 0 0 -459 0 -459 658 -448 c569 -388 663 -449 700 -452 l42 -4 0 125 0 124 -372 253 c-205 140 -456 311 -558 380 l-185 127 -3 287 -2 287 172 -118 c95 -64 294 -199 441 -300 219 -149 275 -183 303 -183 l34 0 -1 418 0 417 -363 245 c-200 135 -356 246 -347 247 9 2 216 -28 461 -65 l445 -69 8 30 c6 21 4 32 -6 40 -17 14 -117 190 -117 205 0 6 -15 14 -32 17 -175 30 -1292 195 -1320 195 l-38 0 0 -132z m753 -38 c293 -44 544 -83 558 -86 18 -3 35 -22 63 -70 21 -36 35 -68 32 -71 -3 -4 -205 24 -448 61 -244 37 -460 70 -480 73 -25 4 -80 34 -160 89 -67 46 -116 84 -109 84 7 0 252 -36 544 -80z m-402 -117 c119 -82 365 -249 547 -373 l331 -225 1 -48 0 -48 -242 164 c-134 91 -391 266 -573 389 l-330 225 -3 47 -3 47 28 -15 c15 -9 125 -82 244 -163z m-100 -719 c5 -7 8 -128 7 -293 l-3 -281 -37 25 -38 26 0 285 0 285 31 -18 c17 -10 35 -23 40 -29z m967 -87 c9 -11 12 -75 10 -236 l-3 -221 -37 25 -38 26 0 225 0 225 28 -15 c16 -8 34 -21 40 -29z m-427 -966 c327 -223 595 -406 597 -407 2 -1 2 -16 0 -33 l-3 -31 -600 409 c-571 388 -600 410 -603 441 -2 18 1 31 5 29 5 -2 277 -186 604 -408z"/>
 <path d="M1813 1792 l-43 -3 0 -414 0 -414 371 -253 c205 -139 384 -258 398 -265 14 -7 41 -12 59 -13 l33 0 -3 132 -3 132 -302 206 -303 205 0 133 c0 72 2 132 4 132 2 0 76 -49 163 -108 416 -285 444 -302 479 -302 l34 0 0 133 0 134 -112 75 c-62 42 -248 168 -413 280 -165 112 -304 206 -310 209 -5 2 -29 3 -52 1z m200 -204 c84 -57 255 -173 380 -258 l227 -154 0 -43 c0 -40 -2 -43 -19 -33 -23 12 -670 451 -718 487 -28 20 -33 31 -33 64 0 21 3 39 6 39 3 0 74 -46 157 -102z m-83 -384 l0 -234 -40 26 -40 27 0 233 0 234 40 -26 40 -27 0 -233z m369 -404 l251 -171 0 -40 c0 -48 33 -65 -280 148 -244 167 -245 168 -248 207 -3 30 0 37 11 33 8 -3 127 -83 266 -177z"/>
 </g>

</svg>